name rise30.3154peak39.0474fall46.5389.mot
datacolumns 19
datarows 18
range 0.51499800000000 0.54333600000000
endheader
time	ground_force1_vx	ground_force1_vy	ground_force1_vz	ground_force1_px	ground_force1_py	ground_force1_pz	ground_force2_vx	ground_force2_vy	ground_force2_vz	ground_force2_px	ground_force2_py	ground_force2_pz	ground_torque1_x	ground_torque1_y	ground_torque1_z	ground_torque2_x	ground_torque2_y	ground_torque2_z	
0.51499800000000	48.43832500000000	732.87335299999995	59.75708900000000	0.28659100000000	0.00000000000000	0.11429700000000	0.00000000000000	0.00000000000000	0.00000000000000	0.00000000000000	0.00000000000000	0.00000000000000	0.00000000000000	23.26735100000000	0.00000000000000	0.00000000000000	0.00000000000000	0.00000000000000	
0.51666400000000	47.53510900000000	733.71892700000001	59.72165200000000	0.28509200000000	0.00000000000000	0.11430900000000	0.00000000000000	0.00000000000000	0.00000000000000	0.00000000000000	0.00000000000000	0.00000000000000	0.00000000000000	23.26285900000000	0.00000000000000	0.00000000000000	0.00000000000000	0.00000000000000	
0.51834300000000	46.65123100000000	734.54079400000001	59.68360500000000	0.28365700000000	0.00000000000000	0.11431700000000	0.00000000000000	0.00000000000000	0.00000000000000	0.00000000000000	0.00000000000000	0.00000000000000	0.00000000000000	23.25839900000000	0.00000000000000	0.00000000000000	0.00000000000000	0.00000000000000	
0.52000600000000	45.78723000000000	735.33801000000005	59.64321100000000	0.28228700000000	0.00000000000000	0.11432100000000	0.00000000000000	0.00000000000000	0.00000000000000	0.00000000000000	0.00000000000000	0.00000000000000	0.00000000000000	23.25409300000000	0.00000000000000	0.00000000000000	0.00000000000000	0.00000000000000	
0.52166600000000	44.94349900000000	736.10951100000000	59.60066800000000	0.28098100000000	0.00000000000000	0.11432100000000	0.00000000000000	0.00000000000000	0.00000000000000	0.00000000000000	0.00000000000000	0.00000000000000	0.00000000000000	23.25002700000000	0.00000000000000	0.00000000000000	0.00000000000000	0.00000000000000	
0.52333300000000	44.12029200000000	736.85412799999995	59.55612000000000	0.27974000000000	0.00000000000000	0.11431700000000	0.00000000000000	0.00000000000000	0.00000000000000	0.00000000000000	0.00000000000000	0.00000000000000	0.00000000000000	23.24625100000000	0.00000000000000	0.00000000000000	0.00000000000000	0.00000000000000	
0.52499800000000	43.31772400000000	737.57061499999998	59.50965600000000	0.27856200000000	0.00000000000000	0.11430900000000	0.00000000000000	0.00000000000000	0.00000000000000	0.00000000000000	0.00000000000000	0.00000000000000	0.00000000000000	23.24278300000000	0.00000000000000	0.00000000000000	0.00000000000000	0.00000000000000	
0.52666800000000	42.53578300000000	738.25765799999999	59.46131100000000	0.27744600000000	0.00000000000000	0.11429700000000	0.00000000000000	0.00000000000000	0.00000000000000	0.00000000000000	0.00000000000000	0.00000000000000	0.00000000000000	23.23961100000000	0.00000000000000	0.00000000000000	0.00000000000000	0.00000000000000	
0.52834200000000	41.77432900000000	738.91390600000000	59.41107100000000	0.27639100000000	0.00000000000000	0.11428100000000	0.00000000000000	0.00000000000000	0.00000000000000	0.00000000000000	0.00000000000000	0.00000000000000	0.00000000000000	23.23669200000000	0.00000000000000	0.00000000000000	0.00000000000000	0.00000000000000	
0.52999700000000	41.03310400000000	739.53797899999995	59.35887400000000	0.27539500000000	0.00000000000000	0.11426100000000	0.00000000000000	0.00000000000000	0.00000000000000	0.00000000000000	0.00000000000000	0.00000000000000	0.00000000000000	23.23395500000000	0.00000000000000	0.00000000000000	0.00000000000000	0.00000000000000	
0.53166400000000	40.31173900000000	740.12849200000005	59.30461700000000	0.27445600000000	0.00000000000000	0.11423700000000	0.00000000000000	0.00000000000000	0.00000000000000	0.00000000000000	0.00000000000000	0.00000000000000	0.00000000000000	23.23130300000000	0.00000000000000	0.00000000000000	0.00000000000000	0.00000000000000	
0.53334500000000	39.60976000000000	740.68407000000002	59.24815500000000	0.27357100000000	0.00000000000000	0.11420900000000	0.00000000000000	0.00000000000000	0.00000000000000	0.00000000000000	0.00000000000000	0.00000000000000	0.00000000000000	23.22861400000000	0.00000000000000	0.00000000000000	0.00000000000000	0.00000000000000	
0.53499800000000	38.92659400000000	741.20336299999997	59.18930700000000	0.27273800000000	0.00000000000000	0.11417800000000	0.00000000000000	0.00000000000000	0.00000000000000	0.00000000000000	0.00000000000000	0.00000000000000	0.00000000000000	23.22574400000000	0.00000000000000	0.00000000000000	0.00000000000000	0.00000000000000	
0.53667000000000	38.26158300000000	741.68506200000002	59.12785900000000	0.27195300000000	0.00000000000000	0.11414200000000	0.00000000000000	0.00000000000000	0.00000000000000	0.00000000000000	0.00000000000000	0.00000000000000	0.00000000000000	23.22252800000000	0.00000000000000	0.00000000000000	0.00000000000000	0.00000000000000	
0.53834600000000	37.61398400000000	742.12791300000004	59.06356800000000	0.27121500000000	0.00000000000000	0.11410300000000	0.00000000000000	0.00000000000000	0.00000000000000	0.00000000000000	0.00000000000000	0.00000000000000	0.00000000000000	23.21878100000000	0.00000000000000	0.00000000000000	0.00000000000000	0.00000000000000	
0.53999600000000	36.98298400000000	742.53072699999996	58.99616900000000	0.27051800000000	0.00000000000000	0.11406100000000	0.00000000000000	0.00000000000000	0.00000000000000	0.00000000000000	0.00000000000000	0.00000000000000	0.00000000000000	23.21430500000000	0.00000000000000	0.00000000000000	0.00000000000000	0.00000000000000	
0.54166300000000	36.36770600000000	742.89239599999996	58.92537200000000	0.26986100000000	0.00000000000000	0.11401500000000	0.00000000000000	0.00000000000000	0.00000000000000	0.00000000000000	0.00000000000000	0.00000000000000	0.00000000000000	23.20888400000000	0.00000000000000	0.00000000000000	0.00000000000000	0.00000000000000	
0.54333600000000	35.76721800000000	743.21190100000001	58.85087400000000	0.26923900000000	0.00000000000000	0.11396600000000	0.00000000000000	0.00000000000000	0.00000000000000	0.00000000000000	0.00000000000000	0.00000000000000	0.00000000000000	23.20229100000000	0.00000000000000	0.00000000000000	0.00000000000000	0.00000000000000	
